<mxfile host="app.diagrams.net" modified="2021-11-08T07:47:36.527Z" agent="5.0 (Macintosh; Intel Mac OS X 10_15_7) AppleWebKit/537.36 (KHTML, like Gecko) Chrome/95.0.4638.54 Safari/537.36" etag="-58eV5BrEOAzZrz9ZH7C" version="15.6.8" type="github">
  <diagram id="ewAgk28_D8-xKCc3fxLr" name="Page-1">
    <mxGraphModel dx="1245" dy="711" grid="1" gridSize="10" guides="1" tooltips="1" connect="1" arrows="1" fold="1" page="1" pageScale="1" pageWidth="827" pageHeight="1169" math="0" shadow="0">
      <root>
        <mxCell id="0" />
        <mxCell id="1" parent="0" />
        <mxCell id="5S8CrPWEdhfOQKya8A3b-6" style="edgeStyle=orthogonalEdgeStyle;rounded=0;orthogonalLoop=1;jettySize=auto;html=1;exitX=1;exitY=0.5;exitDx=0;exitDy=0;entryX=0;entryY=0.5;entryDx=0;entryDy=0;" parent="1" source="5S8CrPWEdhfOQKya8A3b-1" target="5S8CrPWEdhfOQKya8A3b-5" edge="1">
          <mxGeometry relative="1" as="geometry" />
        </mxCell>
        <mxCell id="5S8CrPWEdhfOQKya8A3b-1" value="TAPD" style="rounded=1;whiteSpace=wrap;html=1;" parent="1" vertex="1">
          <mxGeometry x="160" y="360" width="80" height="40" as="geometry" />
        </mxCell>
        <mxCell id="5S8CrPWEdhfOQKya8A3b-4" style="edgeStyle=orthogonalEdgeStyle;rounded=0;orthogonalLoop=1;jettySize=auto;html=1;exitX=0.5;exitY=1;exitDx=0;exitDy=0;entryX=0.5;entryY=0;entryDx=0;entryDy=0;" parent="1" source="5S8CrPWEdhfOQKya8A3b-2" target="5S8CrPWEdhfOQKya8A3b-1" edge="1">
          <mxGeometry relative="1" as="geometry" />
        </mxCell>
        <mxCell id="5S8CrPWEdhfOQKya8A3b-14" style="edgeStyle=orthogonalEdgeStyle;rounded=0;orthogonalLoop=1;jettySize=auto;html=1;exitX=0;exitY=0.5;exitDx=0;exitDy=0;entryX=1;entryY=0.5;entryDx=0;entryDy=0;" parent="1" source="5S8CrPWEdhfOQKya8A3b-2" target="5S8CrPWEdhfOQKya8A3b-11" edge="1">
          <mxGeometry relative="1" as="geometry" />
        </mxCell>
        <mxCell id="5S8CrPWEdhfOQKya8A3b-15" style="edgeStyle=orthogonalEdgeStyle;rounded=0;orthogonalLoop=1;jettySize=auto;html=1;exitX=0;exitY=0.5;exitDx=0;exitDy=0;" parent="1" source="5S8CrPWEdhfOQKya8A3b-2" target="5S8CrPWEdhfOQKya8A3b-12" edge="1">
          <mxGeometry relative="1" as="geometry" />
        </mxCell>
        <mxCell id="5S8CrPWEdhfOQKya8A3b-16" style="edgeStyle=orthogonalEdgeStyle;rounded=0;orthogonalLoop=1;jettySize=auto;html=1;exitX=0;exitY=0.5;exitDx=0;exitDy=0;entryX=1;entryY=0.5;entryDx=0;entryDy=0;" parent="1" source="5S8CrPWEdhfOQKya8A3b-2" target="5S8CrPWEdhfOQKya8A3b-13" edge="1">
          <mxGeometry relative="1" as="geometry" />
        </mxCell>
        <mxCell id="5S8CrPWEdhfOQKya8A3b-2" value="项目管理" style="rounded=1;whiteSpace=wrap;html=1;" parent="1" vertex="1">
          <mxGeometry x="160" y="280" width="80" height="40" as="geometry" />
        </mxCell>
        <mxCell id="5S8CrPWEdhfOQKya8A3b-5" value="jenkins" style="rounded=1;whiteSpace=wrap;html=1;" parent="1" vertex="1">
          <mxGeometry x="280" y="360" width="80" height="40" as="geometry" />
        </mxCell>
        <mxCell id="5S8CrPWEdhfOQKya8A3b-7" value="自动化构建" style="text;html=1;strokeColor=none;fillColor=none;align=center;verticalAlign=middle;whiteSpace=wrap;rounded=0;" parent="1" vertex="1">
          <mxGeometry x="285" y="400" width="70" height="30" as="geometry" />
        </mxCell>
        <mxCell id="5S8CrPWEdhfOQKya8A3b-9" style="edgeStyle=orthogonalEdgeStyle;rounded=0;orthogonalLoop=1;jettySize=auto;html=1;exitX=0.5;exitY=1;exitDx=0;exitDy=0;entryX=0.5;entryY=0;entryDx=0;entryDy=0;" parent="1" source="5S8CrPWEdhfOQKya8A3b-8" target="5S8CrPWEdhfOQKya8A3b-5" edge="1">
          <mxGeometry relative="1" as="geometry" />
        </mxCell>
        <mxCell id="5S8CrPWEdhfOQKya8A3b-8" value="gitlab" style="rounded=1;whiteSpace=wrap;html=1;" parent="1" vertex="1">
          <mxGeometry x="280" y="280" width="80" height="40" as="geometry" />
        </mxCell>
        <mxCell id="5S8CrPWEdhfOQKya8A3b-10" value="代码集成" style="text;html=1;strokeColor=none;fillColor=none;align=center;verticalAlign=middle;whiteSpace=wrap;rounded=0;" parent="1" vertex="1">
          <mxGeometry x="310" y="320" width="70" height="30" as="geometry" />
        </mxCell>
        <mxCell id="5S8CrPWEdhfOQKya8A3b-11" value="需求管理" style="rounded=1;whiteSpace=wrap;html=1;" parent="1" vertex="1">
          <mxGeometry x="40" y="220" width="80" height="40" as="geometry" />
        </mxCell>
        <mxCell id="5S8CrPWEdhfOQKya8A3b-12" value="缺陷管理" style="rounded=1;whiteSpace=wrap;html=1;" parent="1" vertex="1">
          <mxGeometry x="40" y="280" width="80" height="40" as="geometry" />
        </mxCell>
        <mxCell id="5S8CrPWEdhfOQKya8A3b-13" value="进度管理" style="rounded=1;whiteSpace=wrap;html=1;" parent="1" vertex="1">
          <mxGeometry x="40" y="340" width="80" height="40" as="geometry" />
        </mxCell>
        <mxCell id="5S8CrPWEdhfOQKya8A3b-28" style="edgeStyle=orthogonalEdgeStyle;rounded=0;orthogonalLoop=1;jettySize=auto;html=1;exitX=1;exitY=0.5;exitDx=0;exitDy=0;" parent="1" source="5S8CrPWEdhfOQKya8A3b-17" target="5S8CrPWEdhfOQKya8A3b-18" edge="1">
          <mxGeometry relative="1" as="geometry" />
        </mxCell>
        <mxCell id="5S8CrPWEdhfOQKya8A3b-17" value="用户" style="rounded=1;whiteSpace=wrap;html=1;" parent="1" vertex="1">
          <mxGeometry x="440" y="160" width="80" height="40" as="geometry" />
        </mxCell>
        <mxCell id="5S8CrPWEdhfOQKya8A3b-29" style="edgeStyle=orthogonalEdgeStyle;rounded=0;orthogonalLoop=1;jettySize=auto;html=1;exitX=1;exitY=0.5;exitDx=0;exitDy=0;entryX=0;entryY=0.5;entryDx=0;entryDy=0;" parent="1" source="5S8CrPWEdhfOQKya8A3b-18" target="5S8CrPWEdhfOQKya8A3b-19" edge="1">
          <mxGeometry relative="1" as="geometry" />
        </mxCell>
        <mxCell id="5S8CrPWEdhfOQKya8A3b-18" value="反馈" style="rounded=1;whiteSpace=wrap;html=1;" parent="1" vertex="1">
          <mxGeometry x="550" y="160" width="80" height="40" as="geometry" />
        </mxCell>
        <mxCell id="5S8CrPWEdhfOQKya8A3b-30" style="edgeStyle=orthogonalEdgeStyle;rounded=0;orthogonalLoop=1;jettySize=auto;html=1;exitX=1;exitY=0.5;exitDx=0;exitDy=0;entryX=0;entryY=0.5;entryDx=0;entryDy=0;" parent="1" source="5S8CrPWEdhfOQKya8A3b-19" target="5S8CrPWEdhfOQKya8A3b-20" edge="1">
          <mxGeometry relative="1" as="geometry" />
        </mxCell>
        <mxCell id="5S8CrPWEdhfOQKya8A3b-19" value="计划" style="rounded=1;whiteSpace=wrap;html=1;" parent="1" vertex="1">
          <mxGeometry x="660" y="160" width="80" height="40" as="geometry" />
        </mxCell>
        <mxCell id="5S8CrPWEdhfOQKya8A3b-31" style="edgeStyle=orthogonalEdgeStyle;rounded=0;orthogonalLoop=1;jettySize=auto;html=1;exitX=1;exitY=0.5;exitDx=0;exitDy=0;entryX=0;entryY=0.5;entryDx=0;entryDy=0;" parent="1" source="5S8CrPWEdhfOQKya8A3b-20" target="5S8CrPWEdhfOQKya8A3b-21" edge="1">
          <mxGeometry relative="1" as="geometry" />
        </mxCell>
        <mxCell id="5S8CrPWEdhfOQKya8A3b-20" value="需求" style="rounded=1;whiteSpace=wrap;html=1;" parent="1" vertex="1">
          <mxGeometry x="770" y="160" width="80" height="40" as="geometry" />
        </mxCell>
        <mxCell id="5S8CrPWEdhfOQKya8A3b-32" style="edgeStyle=orthogonalEdgeStyle;rounded=0;orthogonalLoop=1;jettySize=auto;html=1;exitX=1;exitY=0.5;exitDx=0;exitDy=0;entryX=0;entryY=0.5;entryDx=0;entryDy=0;" parent="1" source="5S8CrPWEdhfOQKya8A3b-21" target="5S8CrPWEdhfOQKya8A3b-22" edge="1">
          <mxGeometry relative="1" as="geometry" />
        </mxCell>
        <mxCell id="5S8CrPWEdhfOQKya8A3b-21" value="backlog" style="rounded=1;whiteSpace=wrap;html=1;" parent="1" vertex="1">
          <mxGeometry x="880" y="160" width="80" height="40" as="geometry" />
        </mxCell>
        <mxCell id="5S8CrPWEdhfOQKya8A3b-27" style="edgeStyle=orthogonalEdgeStyle;rounded=0;orthogonalLoop=1;jettySize=auto;html=1;exitX=0.5;exitY=1;exitDx=0;exitDy=0;entryX=0.5;entryY=0;entryDx=0;entryDy=0;" parent="1" source="5S8CrPWEdhfOQKya8A3b-22" target="5S8CrPWEdhfOQKya8A3b-23" edge="1">
          <mxGeometry relative="1" as="geometry" />
        </mxCell>
        <mxCell id="5S8CrPWEdhfOQKya8A3b-22" value="迭代" style="rounded=1;whiteSpace=wrap;html=1;" parent="1" vertex="1">
          <mxGeometry x="990" y="160" width="80" height="40" as="geometry" />
        </mxCell>
        <mxCell id="5S8CrPWEdhfOQKya8A3b-26" style="edgeStyle=orthogonalEdgeStyle;rounded=0;orthogonalLoop=1;jettySize=auto;html=1;exitX=0;exitY=0.5;exitDx=0;exitDy=0;entryX=1;entryY=0.5;entryDx=0;entryDy=0;" parent="1" source="5S8CrPWEdhfOQKya8A3b-23" target="5S8CrPWEdhfOQKya8A3b-24" edge="1">
          <mxGeometry relative="1" as="geometry" />
        </mxCell>
        <mxCell id="5S8CrPWEdhfOQKya8A3b-23" value="开发" style="rounded=1;whiteSpace=wrap;html=1;" parent="1" vertex="1">
          <mxGeometry x="990" y="315" width="80" height="40" as="geometry" />
        </mxCell>
        <mxCell id="5S8CrPWEdhfOQKya8A3b-40" style="edgeStyle=orthogonalEdgeStyle;rounded=0;orthogonalLoop=1;jettySize=auto;html=1;exitX=0.5;exitY=1;exitDx=0;exitDy=0;entryX=0.5;entryY=0;entryDx=0;entryDy=0;" parent="1" source="5S8CrPWEdhfOQKya8A3b-24" target="5S8CrPWEdhfOQKya8A3b-35" edge="1">
          <mxGeometry relative="1" as="geometry" />
        </mxCell>
        <mxCell id="5S8CrPWEdhfOQKya8A3b-24" value="gitlab" style="rounded=1;whiteSpace=wrap;html=1;" parent="1" vertex="1">
          <mxGeometry x="760" y="315" width="80" height="40" as="geometry" />
        </mxCell>
        <mxCell id="5S8CrPWEdhfOQKya8A3b-33" value="" style="endArrow=none;dashed=1;html=1;dashPattern=1 3;strokeWidth=2;rounded=0;" parent="1" edge="1">
          <mxGeometry width="50" height="50" relative="1" as="geometry">
            <mxPoint x="420" y="130" as="sourcePoint" />
            <mxPoint x="420" y="130" as="targetPoint" />
            <Array as="points">
              <mxPoint x="420" y="380" />
              <mxPoint x="1080" y="380" />
              <mxPoint x="1080" y="130" />
            </Array>
          </mxGeometry>
        </mxCell>
        <mxCell id="5S8CrPWEdhfOQKya8A3b-34" value="TAPD" style="text;html=1;strokeColor=none;fillColor=none;align=center;verticalAlign=middle;whiteSpace=wrap;rounded=0;" parent="1" vertex="1">
          <mxGeometry x="710" y="100" width="60" height="30" as="geometry" />
        </mxCell>
        <mxCell id="5S8CrPWEdhfOQKya8A3b-41" style="edgeStyle=orthogonalEdgeStyle;rounded=0;orthogonalLoop=1;jettySize=auto;html=1;exitX=1;exitY=0.5;exitDx=0;exitDy=0;entryX=0;entryY=0.5;entryDx=0;entryDy=0;" parent="1" source="5S8CrPWEdhfOQKya8A3b-35" target="5S8CrPWEdhfOQKya8A3b-36" edge="1">
          <mxGeometry relative="1" as="geometry" />
        </mxCell>
        <mxCell id="5S8CrPWEdhfOQKya8A3b-42" style="edgeStyle=orthogonalEdgeStyle;rounded=0;orthogonalLoop=1;jettySize=auto;html=1;exitX=1;exitY=0.5;exitDx=0;exitDy=0;entryX=0;entryY=0.5;entryDx=0;entryDy=0;" parent="1" source="5S8CrPWEdhfOQKya8A3b-35" target="5S8CrPWEdhfOQKya8A3b-37" edge="1">
          <mxGeometry relative="1" as="geometry" />
        </mxCell>
        <mxCell id="5S8CrPWEdhfOQKya8A3b-43" style="edgeStyle=orthogonalEdgeStyle;rounded=0;orthogonalLoop=1;jettySize=auto;html=1;exitX=1;exitY=0.5;exitDx=0;exitDy=0;entryX=0;entryY=0.5;entryDx=0;entryDy=0;" parent="1" source="5S8CrPWEdhfOQKya8A3b-35" target="5S8CrPWEdhfOQKya8A3b-38" edge="1">
          <mxGeometry relative="1" as="geometry" />
        </mxCell>
        <mxCell id="5S8CrPWEdhfOQKya8A3b-35" value="jenkins" style="rounded=1;whiteSpace=wrap;html=1;" parent="1" vertex="1">
          <mxGeometry x="760" y="490" width="80" height="40" as="geometry" />
        </mxCell>
        <mxCell id="5S8CrPWEdhfOQKya8A3b-36" value="测试环境" style="rounded=1;whiteSpace=wrap;html=1;" parent="1" vertex="1">
          <mxGeometry x="880" y="420" width="80" height="40" as="geometry" />
        </mxCell>
        <mxCell id="5S8CrPWEdhfOQKya8A3b-37" value="预发布环境" style="rounded=1;whiteSpace=wrap;html=1;" parent="1" vertex="1">
          <mxGeometry x="880" y="490" width="80" height="40" as="geometry" />
        </mxCell>
        <mxCell id="5S8CrPWEdhfOQKya8A3b-38" value="生产环境" style="rounded=1;whiteSpace=wrap;html=1;" parent="1" vertex="1">
          <mxGeometry x="880" y="555" width="80" height="40" as="geometry" />
        </mxCell>
        <mxCell id="5S8CrPWEdhfOQKya8A3b-39" value="" style="endArrow=none;dashed=1;html=1;dashPattern=1 3;strokeWidth=2;rounded=0;" parent="1" edge="1">
          <mxGeometry width="50" height="50" relative="1" as="geometry">
            <mxPoint x="420" y="410" as="sourcePoint" />
            <mxPoint x="420" y="400" as="targetPoint" />
            <Array as="points">
              <mxPoint x="420" y="620" />
              <mxPoint x="990" y="620" />
              <mxPoint x="990" y="400" />
            </Array>
          </mxGeometry>
        </mxCell>
        <mxCell id="5S8CrPWEdhfOQKya8A3b-49" style="edgeStyle=orthogonalEdgeStyle;rounded=0;orthogonalLoop=1;jettySize=auto;html=1;exitX=1;exitY=0.5;exitDx=0;exitDy=0;entryX=0;entryY=0.5;entryDx=0;entryDy=0;" parent="1" source="5S8CrPWEdhfOQKya8A3b-44" target="5S8CrPWEdhfOQKya8A3b-47" edge="1">
          <mxGeometry relative="1" as="geometry" />
        </mxCell>
        <mxCell id="5S8CrPWEdhfOQKya8A3b-44" value="ELK日志监控" style="rounded=1;whiteSpace=wrap;html=1;" parent="1" vertex="1">
          <mxGeometry x="444" y="670" width="80" height="40" as="geometry" />
        </mxCell>
        <mxCell id="5S8CrPWEdhfOQKya8A3b-50" style="edgeStyle=orthogonalEdgeStyle;rounded=0;orthogonalLoop=1;jettySize=auto;html=1;exitX=1;exitY=0.5;exitDx=0;exitDy=0;entryX=0;entryY=0.5;entryDx=0;entryDy=0;" parent="1" source="5S8CrPWEdhfOQKya8A3b-45" target="5S8CrPWEdhfOQKya8A3b-46" edge="1">
          <mxGeometry relative="1" as="geometry" />
        </mxCell>
        <mxCell id="5S8CrPWEdhfOQKya8A3b-45" value="prometheus基础数据监控" style="rounded=1;whiteSpace=wrap;html=1;" parent="1" vertex="1">
          <mxGeometry x="444" y="815" width="80" height="40" as="geometry" />
        </mxCell>
        <mxCell id="5S8CrPWEdhfOQKya8A3b-46" value="granfna看板" style="rounded=1;whiteSpace=wrap;html=1;" parent="1" vertex="1">
          <mxGeometry x="554" y="815" width="80" height="40" as="geometry" />
        </mxCell>
        <mxCell id="5S8CrPWEdhfOQKya8A3b-47" value="kibana看板" style="rounded=1;whiteSpace=wrap;html=1;" parent="1" vertex="1">
          <mxGeometry x="554" y="670" width="80" height="40" as="geometry" />
        </mxCell>
        <mxCell id="5S8CrPWEdhfOQKya8A3b-52" style="edgeStyle=orthogonalEdgeStyle;rounded=0;orthogonalLoop=1;jettySize=auto;html=1;exitX=0.5;exitY=1;exitDx=0;exitDy=0;entryX=0.5;entryY=0;entryDx=0;entryDy=0;" parent="1" source="5S8CrPWEdhfOQKya8A3b-51" target="5S8CrPWEdhfOQKya8A3b-45" edge="1">
          <mxGeometry relative="1" as="geometry" />
        </mxCell>
        <mxCell id="5S8CrPWEdhfOQKya8A3b-53" style="edgeStyle=orthogonalEdgeStyle;rounded=0;orthogonalLoop=1;jettySize=auto;html=1;exitX=0.5;exitY=0;exitDx=0;exitDy=0;entryX=0.5;entryY=1;entryDx=0;entryDy=0;" parent="1" source="5S8CrPWEdhfOQKya8A3b-51" target="5S8CrPWEdhfOQKya8A3b-44" edge="1">
          <mxGeometry relative="1" as="geometry" />
        </mxCell>
        <mxCell id="5S8CrPWEdhfOQKya8A3b-51" value="CMDB" style="rounded=1;whiteSpace=wrap;html=1;" parent="1" vertex="1">
          <mxGeometry x="494" y="740" width="80" height="40" as="geometry" />
        </mxCell>
        <mxCell id="5S8CrPWEdhfOQKya8A3b-54" value="" style="endArrow=none;dashed=1;html=1;dashPattern=1 3;strokeWidth=2;rounded=0;" parent="1" edge="1">
          <mxGeometry width="50" height="50" relative="1" as="geometry">
            <mxPoint x="414" y="650" as="sourcePoint" />
            <mxPoint x="414" y="650" as="targetPoint" />
            <Array as="points">
              <mxPoint x="414" y="870" />
              <mxPoint x="664" y="870" />
              <mxPoint x="664" y="650" />
            </Array>
          </mxGeometry>
        </mxCell>
      </root>
    </mxGraphModel>
  </diagram>
</mxfile>
